<svg preserveAspectRatio="none" overflow="visible" style="display: block;" width="16" height="16" viewBox="0 0 16 16" fill="none" xmlns="http://www.w3.org/2000/svg">
<g id="Icon">
<path id="Vector" d="M9.53667 13.02L10.152 12.7653" stroke="black" stroke-width="1.33333" stroke-linecap="round" stroke-linejoin="round"/>
<path id="Vector_2" d="M10.152 11.2347L9.53667 10.9793" stroke="black" stroke-width="1.33333" stroke-linecap="round" stroke-linejoin="round"/>
<path id="Vector_3" d="M11.2347 10.152L10.9793 9.53667" stroke="black" stroke-width="1.33333" stroke-linecap="round" stroke-linejoin="round"/>
<path id="Vector_4" d="M11.2347 13.848L10.9793 14.464" stroke="black" stroke-width="1.33333" stroke-linecap="round" stroke-linejoin="round"/>
<path id="Vector_5" d="M12.7653 10.152L13.0207 9.53667" stroke="black" stroke-width="1.33333" stroke-linecap="round" stroke-linejoin="round"/>
<path id="Vector_6" d="M13.02 14.464L12.7653 13.848" stroke="black" stroke-width="1.33333" stroke-linecap="round" stroke-linejoin="round"/>
<path id="Vector_7" d="M1.33333 14C1.33341 13.1606 1.5316 12.3332 1.91177 11.5848C2.29195 10.8365 2.84338 10.1885 3.52122 9.69345C4.19905 9.19842 4.98416 8.87037 5.81269 8.73597C6.64122 8.60157 7.48977 8.66463 8.28933 8.92" stroke="black" stroke-width="1.33333" stroke-linecap="round" stroke-linejoin="round"/>
<path id="Vector_8" d="M13.848 11.2347L14.464 10.9793" stroke="black" stroke-width="1.33333" stroke-linecap="round" stroke-linejoin="round"/>
<path id="Vector_9" d="M13.848 12.7653L14.464 13.0207" stroke="black" stroke-width="1.33333" stroke-linecap="round" stroke-linejoin="round"/>
<path id="Vector_10" d="M6.66667 8.66667C8.50762 8.66667 10 7.17428 10 5.33333C10 3.49238 8.50762 2 6.66667 2C4.82572 2 3.33333 3.49238 3.33333 5.33333C3.33333 7.17428 4.82572 8.66667 6.66667 8.66667Z" stroke="black" stroke-width="1.33333" stroke-linecap="round" stroke-linejoin="round"/>
<path id="Vector_11" d="M12 14C13.1046 14 14 13.1046 14 12C14 10.8954 13.1046 10 12 10C10.8954 10 10 10.8954 10 12C10 13.1046 10.8954 14 12 14Z" stroke="black" stroke-width="1.33333" stroke-linecap="round" stroke-linejoin="round"/>
</g>
</svg>
